<?xml version="1.0" encoding="UTF-8" standalone="no"?>
<!-- Created with Inkscape (http://www.inkscape.org/) -->

<svg
   xmlns:dc="http://purl.org/dc/elements/1.1/"
   xmlns:cc="http://creativecommons.org/ns#"
   xmlns:rdf="http://www.w3.org/1999/02/22-rdf-syntax-ns#"
   xmlns:svg="http://www.w3.org/2000/svg"
   xmlns="http://www.w3.org/2000/svg"
   xmlns:sodipodi="http://sodipodi.sourceforge.net/DTD/sodipodi-0.dtd"
   xmlns:inkscape="http://www.inkscape.org/namespaces/inkscape"
   width="100"
   height="100"
   viewBox="0 0 100 100"
   id="svg2"
   version="1.1"
   inkscape:version="0.91 r13725"
   sodipodi:docname="appicon.svg">
  <defs
     id="defs4" />
  <sodipodi:namedview
     id="base"
     pagecolor="#ffffff"
     bordercolor="#666666"
     borderopacity="1.0"
     inkscape:pageopacity="0.0"
     inkscape:pageshadow="2"
     inkscape:zoom="5.6"
     inkscape:cx="56.282177"
     inkscape:cy="35.441861"
     inkscape:document-units="px"
     inkscape:current-layer="layer1"
     showgrid="false"
     units="px"
     inkscape:window-width="1920"
     inkscape:window-height="1017"
     inkscape:window-x="1592"
     inkscape:window-y="-8"
     inkscape:window-maximized="1" />
  <metadata
     id="metadata7">
    <rdf:RDF>
      <cc:Work
         rdf:about="">
        <dc:format>image/svg+xml</dc:format>
        <dc:type
           rdf:resource="http://purl.org/dc/dcmitype/StillImage" />
        <dc:title></dc:title>
      </cc:Work>
    </rdf:RDF>
  </metadata>
  <g
     inkscape:label="Ebene 1"
     inkscape:groupmode="layer"
     id="layer1"
     transform="translate(0,-952.36216)">
    <path
       style="fill:#000000"
       d="m 23.839863,1039.2733 c -6.726213,-0.3529 -19.7179029,-1.6643 -20.0310899,-2.0221 -0.190797,-0.218 -0.714193,-2.7183 -1.163105,-5.5562 -1.184509,-7.4883 -1.488589,-22.7483 -0.606054,-30.4143 0.36594,-3.17876 0.773934,-6.10386 0.906653,-6.50029 0.234205,-0.69957 2.80118,-2.5626 8.5663319,-6.21718 l 2.798466,-1.77397 1.890271,1.04885 c 3.929862,2.1806 8.299271,-0.55117 7.114187,-4.44779 -0.309276,-1.01692 -0.269698,-1.49964 0.160529,-1.95766 1.816029,-1.9334 22.062168,-11.53358 33.017989,-15.65624 l 7.168322,-2.69744 2.362964,1.52479 c 4.10098,2.6463 11.364884,8.26324 15.776135,12.19916 4.975743,4.43959 13.956395,13.5667 14.767375,15.0082 2.18935,3.89157 2.24293,40.50307 0.0622,42.47987 -0.41592,0.377 -23.725845,3.9125 -25.647135,3.89 -0.418494,0 -0.958511,-0.6637 -1.290457,-1.5743 -0.849207,-2.3297 -2.92631,-4.1345 -4.755752,-4.1323 -2.694375,0 -4.599403,1.958 -5.599172,5.7458 -0.136491,0.5171 -0.907934,0.8574 -2.413081,1.0645 -2.117516,0.2915 -27.47722,0.2827 -33.08555,-0.012 z m 31.010001,-2.3547 c 2.003483,-0.2401 2.591029,-0.4967 2.790988,-1.2187 0.369397,-1.3341 2.607454,-4.1179 3.950703,-4.9141 2.991296,-1.773 7.69912,-0.086 9.305162,3.3358 0.741668,1.5799 0.923897,1.6978 2.257217,1.4607 0.797733,-0.1418 6.011856,-0.9089 11.586965,-1.7047 5.575096,-0.7957 10.201768,-1.5214 10.281498,-1.6129 1.09166,-1.2512 1.48139,-24.1335 0.56461,-33.14894 l -0.56636,-5.56927 -3.37049,-3.75947 c -5.658367,-6.3114 -11.953644,-12.1708 -18.289495,-17.02318 -5.85822,-4.48658 -9.275599,-6.79119 -10.070246,-6.79119 -0.402606,0 -3.709374,1.15032 -7.348362,2.55628 -9.571052,3.69787 -17.65598,7.39581 -26.69927,12.21188 l -3.745307,1.9946 0,2.12448 c 0,1.82557 -0.220949,2.37775 -1.570382,3.9245 -2.049009,2.34862 -4.615254,2.89471 -7.790172,1.65773 l -2.157431,-0.84057 -4.4692069,3.02928 c -5.059621,3.42946 -4.817876,2.97446 -5.522014,10.39337 -0.8548,9.0065 -0.536254,18.2591 1.040414,30.2207 0.257915,1.9565 0.26171,1.9601 2.386281,2.2344 1.922671,0.2482 12.3096949,1.0673 18.0825109,1.426 4.739353,0.2944 26.921787,0.3044 29.352387,0.014 z m 24.271706,-4.1741 c -1.519518,-0.7583 -3.066807,-3.4118 -3.066807,-5.2595 0,-1.8357 1.430967,-4.2896 2.911354,-4.9924 0.706084,-0.3352 2.063057,-0.4863 3.130176,-0.3484 5.283314,0.6826 6.078198,8.226 1.120248,10.6314 -1.643319,0.7973 -2.447049,0.7912 -4.094971,-0.031 z m 3.948426,-1.9169 c 1.278326,-0.7577 1.687252,-1.5891 1.687252,-3.4305 l 0,-1.198 -1.508719,1.5185 c -1.543706,1.5535 -2.795131,1.7304 -4.914539,0.6947 -0.793614,-0.3878 -0.800507,-0.3556 -0.162458,0.7589 0.683737,1.1942 2.230579,2.3319 3.18746,2.3444 0.296224,0 1.066174,-0.3057 1.711004,-0.688 z m -73.4182559,0.9015 c -2.566468,-1.5962 -3.104744,-5.4128 -1.127451,-7.9942 1.5342619,-2.0029 3.1219389,-2.4828 5.0922259,-1.5392 3.459609,1.6569 3.639859,7.5715 0.291223,9.5564 -1.511705,0.8959 -2.789371,0.8891 -4.2559979,-0.024 z m 3.9793449,-2.141 c 1.611442,-1.4528 1.403271,-2.1622 -0.571234,-1.9463 -1.063163,0.1157 -2.0296,-0.093 -2.679046,-0.5812 -1.3099539,-0.9839 -1.4594849,-0.9625 -1.4594849,0.2086 0,1.2248 1.7782669,3.3034 2.8261009,3.3034 0.435477,0 1.283116,-0.443 1.883664,-0.9845 z m 27.820949,1.9959 c -2.687818,-1.9135 -3.936842,-4.3688 -3.936842,-7.7393 0,-5.5995 4.831537,-9.9227 9.484441,-8.4866 1.841199,0.5684 4.404956,3.1486 5.044722,5.0774 0.534331,1.6109 0.489888,5.7003 -0.07565,6.9621 -0.687483,1.5337 -2.488009,3.6419 -3.762017,4.4049 -1.622639,0.9716 -5.247543,0.8544 -6.754644,-0.2185 z m 6.695195,-2.0073 c 1.580261,-1.1194 2.628891,-3.0941 2.628891,-4.9504 l 0,-1.2434 -1.346808,1.1011 c -1.083966,0.8862 -1.884424,1.1011 -4.101428,1.1011 -2.515294,0 -2.907696,-0.141 -4.516525,-1.623 l -1.761917,-1.6229 0.227928,2.3177 c 0.190093,1.9332 0.507096,2.6164 1.910441,4.1168 1.449605,1.5498 1.950517,1.7989 3.618097,1.7989 1.241982,0 2.439285,-0.3569 3.341321,-0.9959 z m -27.832819,-5.7909 c -3.948264,-2.1648 -5.823456,-5.84 -5.510447,-10.8001 0.526866,-8.3488 9.391635,-12.6395 15.341815,-7.4256 5.451334,4.7768 4.671667,14.3761 -1.4588,17.961 -2.626665,1.5359 -5.86719,1.6385 -8.372568,0.2647 z m 7.047882,-1.7138 c 2.949055,-1.5649 4.767435,-4.5417 4.7641,-7.7991 l -0.0012,-1.5127 -0.784569,1.4746 c -1.647947,3.0977 -5.596223,4.6112 -9.162325,3.5124 -2.07739,-0.6401 -4.968563,-3.6919 -4.968563,-5.2446 0,-0.5115 -0.186484,-0.9301 -0.4144,-0.9301 -0.549511,0 -0.531184,3.859 0.02638,5.5504 1.005841,3.0514 4.547519,5.8288 7.432906,5.8288 0.797721,0 2.196338,-0.3958 3.108029,-0.8797 z m 42.760369,-2.4345 c -3.136658,-0.6455 -6.093924,-4.3378 -6.400164,-7.9908 -0.596543,-7.1162 4.876988,-12.09123 11.064926,-10.0571 1.57572,0.518 3.922633,2.8785 4.82513,4.8531 0.32244,0.7055 0.586252,2.5037 0.586252,3.9959 0,6.1176 -4.607714,10.3241 -10.076144,9.1989 z m 5.461437,-2.7126 c 1.551607,-1.3171 2.959656,-3.8553 2.942187,-5.3038 l -0.01493,-1.236 -0.917502,1.2495 c -1.585885,2.1599 -3.401727,2.9088 -6.557185,2.7043 -2.087518,-0.1351 -3.143303,-0.4565 -4.064288,-1.237 -1.50088,-1.2718 -1.7469,-1.3109 -1.404503,-0.223 1.439714,4.5742 6.829148,6.7512 10.016197,4.046 z m -22.369055,-4.8145 c -3.660077,-3.3125 -1.826828,-9.5628 2.8048,-9.5628 1.501079,0 2.097074,0.2661 3.055012,1.3641 2.029612,2.3265 2.127022,4.991 0.272808,7.4619 -1.328144,1.7698 -4.561939,2.1583 -6.13262,0.7368 z m 5.13677,-2.5152 c 0.580094,-0.8944 0.738993,-1.6365 0.542543,-2.5336 l -0.277797,-1.2687 -0.842264,1.2274 c -0.904723,1.3183 -2.663356,1.6319 -4.124583,0.7356 -1.155446,-0.7088 -1.076513,0.8075 0.117953,2.2649 1.256465,1.533 3.445772,1.3298 4.584198,-0.4256 z M 32.749548,999.36038 c -7.568377,-0.6064 -24.8064969,-2.52937 -25.0199929,-2.79108 -0.142252,-0.1744 1.419694,-0.18731 3.4709929,-0.0287 11.467544,0.88676 38.572567,1.37748 47.449244,0.85903 8.15392,-0.47622 29.020104,-2.49897 32.530715,-3.15349 1.13152,-0.21096 1.17559,-0.17241 0.49041,0.42907 -0.41404,0.36348 -1.9059,0.88538 -3.31523,1.15979 -3.83346,0.74641 -20.402165,2.81361 -27.012267,3.37014 -5.324809,0.44841 -23.690306,0.54808 -28.593872,0.15515 z m 8.80216,-8.8917 c -1.985964,-0.81229 -2.5839,-1.39487 -3.210067,-3.1276 -2.016771,-5.58088 5.840614,-9.4097 9.738984,-4.7457 2.297829,2.74912 0.914566,6.93675 -2.668196,8.07758 -1.831731,0.58326 -1.950654,0.57697 -3.860721,-0.20428 z m 4.562375,-2.16587 c 2.771193,-1.93669 1.084377,-5.70519 -2.553703,-5.70519 -2.324169,0 -3.55876,1.05492 -3.55876,3.04081 0,3.16987 3.319023,4.61662 6.112463,2.66438 z m 9.866044,-3.06061 c -4.754184,-2.02374 -6.482545,-6.69951 -3.878874,-10.49355 3.037917,-4.42681 11.77009,-4.01915 14.154653,0.6608 0.999894,1.96242 0.974201,5.08419 -0.05499,6.68036 -1.936992,3.00401 -6.942522,4.54788 -10.220772,3.15239 z m 6.121161,-1.8675 c 0.744069,-0.35634 1.838935,-1.31005 2.433038,-2.11934 0.908158,-1.2371 1.029283,-1.73021 0.760531,-3.09606 -0.439733,-2.23479 -0.666841,-2.56411 -2.512631,-3.64346 -2.988322,-1.74745 -7.7842,-0.92503 -9.326824,1.5994 -0.90496,1.48095 -0.766639,4.20716 0.278731,5.4933 1.86362,2.29286 5.614302,3.08456 8.367155,1.76616 z"
       id="path4147"
       inkscape:connector-curvature="0" />
  </g>
</svg>
