<?xml version="1.0" encoding="UTF-8" standalone="no"?>
<svg
   xmlns:dc="http://purl.org/dc/elements/1.1/"
   xmlns:cc="http://creativecommons.org/ns#"
   xmlns:rdf="http://www.w3.org/1999/02/22-rdf-syntax-ns#"
   xmlns:svg="http://www.w3.org/2000/svg"
   xmlns="http://www.w3.org/2000/svg"
   version="1.1"
   id="svg5871"
   viewBox="0 0 100 100"
   height="100"
   width="100">
  <defs
     id="defs5873" />
  <metadata
     id="metadata5876">
    <rdf:RDF>
      <cc:Work
         rdf:about="">
        <dc:format>image/svg+xml</dc:format>
        <dc:type
           rdf:resource="http://purl.org/dc/dcmitype/StillImage" />
        <dc:title></dc:title>
      </cc:Work>
    </rdf:RDF>
  </metadata>
  <g
     transform="translate(0,-952.36216)"
     id="layer1">
    <path
       id="path6434"
       d="m 50.934692,959.54358 c 7.462944,0.13884 15.029949,2.33947 21.939315,7.02828 l 6.010466,4.07881 4.539423,-4.53943 c 3.466586,-3.46661 4.736299,-3.94628 5.349241,-2.0134 0.976219,3.07846 4.662529,37.47046 4.078797,38.05396 -0.228097,0.2282 -8.574187,-1.6309 -18.544034,-4.13086 l -18.127982,-4.54684 4.695445,-4.90346 c 5.567885,-5.81161 4.685501,-8.00387 -4.190237,-10.39387 -8.483646,-2.28443 -18.067849,0.26552 -25.312309,6.73854 -4.419898,3.94918 -5.591287,6.58494 -6.329937,14.27206 -1.088316,11.32653 2.580504,19.50583 11.121962,24.78483 11.141922,6.8859 29.780771,2.684 34.554611,-7.7935 1.874058,-4.1132 2.114796,-4.1614 8.335899,-1.6048 9.009863,3.7023 9.700272,4.7667 6.731127,10.4756 -3.660855,7.0384 -9.553187,12.1597 -18.833785,16.3672 -27.85735,12.6294 -59.866917,-8.032 -59.866917,-38.6408 0,-25.47266 21.460073,-43.64866 43.848915,-43.23232 z"
       style="fill:#000000" />
  </g>
</svg>
